<svg xmlns="http://www.w3.org/2000/svg" viewBox="0 0 160 90" overflow="visible" enable-background="new 0 0 160 90"><rect fill="#EDEDED" width="160" height="90"/><path fill="#FFFFFF" d="M51.32 43.82H49.64v3.78c0 0.66 0.38 0.8 0.98 0.8 0.22 0 0.46-0.03 0.7-0.03v2c-0.5 0.02-0.99 0.08-1.49 0.08-2.32 0-2.91-0.67-2.91-2.93v-3.69H45.55v-1.76h1.38v-2.51h2.72v2.51h1.68V43.82zM53.71 46.88c0.05 1.14 0.7 1.89 1.86 1.89 0.66 0 1.3-0.3 1.55-0.91h2.54c-0.5 1.92-2.27 2.75-4.13 2.75-2.7 0-4.55-1.63-4.55-4.42 0-2.54 2.03-4.37 4.48-4.37 2.98 0 4.46 2.24 4.34 5.06H53.71zM57.08 45.36c-0.05-0.93-0.7-1.7-1.62-1.7-0.96 0-1.6 0.69-1.76 1.7H57.08zM65.78 45.1c-0.02-0.7-0.64-1.2-1.33-1.2-1.52 0-1.76 1.3-1.76 2.45 0 1.07 0.46 2.18 1.62 2.18 0.94 0 1.42-0.54 1.55-1.42h2.64c-0.24 2.22-1.97 3.51-4.18 3.51-2.5 0-4.35-1.71-4.35-4.26 0-2.64 1.68-4.53 4.35-4.53 2.06 0 3.9 1.09 4.1 3.28H65.78zM68.57 39.55h2.72v3.64h0.03c0.42-0.85 1.54-1.38 2.53-1.38 2.77 0 2.99 2.02 2.99 3.22v5.33h-2.72v-4.02c0-1.13 0.13-2.29-1.36-2.29-1.02 0-1.47 0.87-1.47 1.78v4.53h-2.72V39.55zM77.09 42.06h2.64v1.46h0.03c0.4-1.06 1.33-1.62 2.5-1.62 0.21 0 0.43 0.02 0.64 0.06v2.48c-0.35-0.1-0.67-0.16-1.04-0.16-1.34 0-2.05 0.93-2.05 1.97v4.11h-2.72V42.06zM82.89 44.62c0.05-1.09 0.56-1.79 1.3-2.22 0.74-0.42 1.7-0.58 2.64-0.58 1.97 0 3.87 0.43 3.87 2.79v3.63c0 0.71 0 1.47 0.32 2.13h-2.74c-0.1-0.26-0.13-0.51-0.16-0.78-0.7 0.74-1.74 1.02-2.74 1.02-1.58 0-2.83-0.8-2.83-2.51 0-2.71 2.94-2.5 4.83-2.88 0.46-0.1 0.72-0.26 0.72-0.77 0-0.62-0.75-0.87-1.31-0.87-0.75 0-1.23 0.34-1.36 1.04H82.89zM86.41 48.92c1.3 0 1.73-0.73 1.66-2.45-0.38 0.24-1.09 0.29-1.68 0.45-0.61 0.14-1.12 0.4-1.12 1.06C85.27 48.65 85.8 48.92 86.41 48.92zM99.48 50.37h-2.59v-0.96h-0.03c-0.53 0.79-1.33 1.2-2.29 1.2-2.61 0-3.71-2.24-3.71-4.58 0-2.16 1.15-4.21 3.51-4.21 1.02 0 1.81 0.38 2.37 1.14h0.03v-3.4h2.72V50.37zM93.57 46.13c0 1.14 0.42 2.4 1.66 2.4 1.33 0 1.62-1.26 1.62-2.32 0-1.2-0.43-2.3-1.62-2.3C93.99 43.9 93.57 45.07 93.57 46.13zM99.86 44.62c0.05-1.09 0.56-1.79 1.3-2.22 0.74-0.42 1.7-0.58 2.64-0.58 1.97 0 3.87 0.43 3.87 2.79v3.63c0 0.71 0 1.47 0.32 2.13h-2.74c-0.1-0.26-0.13-0.51-0.16-0.78-0.7 0.74-1.74 1.02-2.74 1.02-1.58 0-2.83-0.8-2.83-2.51 0-2.71 2.94-2.5 4.83-2.88 0.46-0.1 0.72-0.26 0.72-0.77 0-0.62-0.75-0.87-1.31-0.87-0.75 0-1.23 0.34-1.36 1.04H99.86zM103.38 48.92c1.3 0 1.73-0.73 1.67-2.45-0.38 0.24-1.09 0.29-1.68 0.45-0.61 0.14-1.12 0.4-1.12 1.06C102.25 48.65 102.77 48.92 103.38 48.92zM108.07 42.06h2.64v1.46h0.03c0.4-1.06 1.33-1.62 2.5-1.62 0.21 0 0.69 0.02 0.9 0.06v2.48c-0.35-0.1-0.93-0.16-1.3-0.16-1.34 0-2.05 0.93-2.05 1.97v4.11h-2.72V42.06z"/><rect x="111.43" y="47.66" fill="#FFFFFF" width="2.71" height="2.71"/></svg>